<svg width="34" height="34" viewBox="0 0 34 34" fill="none" xmlns="http://www.w3.org/2000/svg">
<circle cx="16.5452" cy="17.1031" r="16.0236" stroke="#CFCFCF" stroke-width="1.04321"/>
<path d="M10.3257 16.3206C9.89357 16.3206 9.54328 16.6709 9.54328 17.103C9.54328 17.5351 9.89357 17.8854 10.3257 17.8854L10.3257 16.3206ZM22.1555 17.6563C22.461 17.3507 22.461 16.8553 22.1555 16.5498L17.1763 11.5706C16.8707 11.265 16.3753 11.265 16.0698 11.5706C15.7642 11.8761 15.7642 12.3715 16.0698 12.6771L20.4958 17.103L16.0698 21.529C15.7642 21.8345 15.7642 22.3299 16.0698 22.6355C16.3753 22.941 16.8707 22.941 17.1763 22.6355L22.1555 17.6563ZM10.3257 17.8854L21.6022 17.8854L21.6022 16.3206L10.3257 16.3206L10.3257 17.8854Z" fill="#CFCFCF"/>
</svg>
